<mxfile host="app.diagrams.net" modified="2023-12-01T02:30:32.704Z" agent="Mozilla/5.0 (Windows NT 10.0; Win64; x64; rv:120.0) Gecko/20100101 Firefox/120.0" etag="r5CZrYCCR3Fdui8my67L" version="22.1.5" type="device">
  <diagram name="Sida-1" id="lHEdYLjpcu-sJbACgKZ6">
    <mxGraphModel dx="1500" dy="757" grid="1" gridSize="10" guides="1" tooltips="1" connect="1" arrows="1" fold="1" page="1" pageScale="1" pageWidth="827" pageHeight="1169" math="0" shadow="0">
      <root>
        <mxCell id="0" />
        <mxCell id="1" parent="0" />
        <mxCell id="ZdCaXhDbcUw_y7cuAWBx-8" value="&amp;lt;&amp;lt;interface&amp;gt;&amp;gt;&lt;br&gt;&lt;code&gt;Movable&lt;/code&gt;" style="swimlane;fontStyle=0;childLayout=stackLayout;horizontal=1;startSize=30;horizontalStack=0;resizeParent=1;resizeParentMax=0;resizeLast=0;collapsible=1;marginBottom=0;whiteSpace=wrap;html=1;" parent="1" vertex="1">
          <mxGeometry x="397" y="197" width="140" height="100" as="geometry" />
        </mxCell>
        <mxCell id="ZdCaXhDbcUw_y7cuAWBx-9" value="&lt;pre&gt;&lt;code class=&quot;code-container&quot; role=&quot;text&quot;&gt;  + move()&lt;br/&gt;  + turnLeft()&lt;br/&gt;  + turnRight()&lt;/code&gt;&lt;/pre&gt;" style="text;strokeColor=none;fillColor=none;align=left;verticalAlign=middle;spacingLeft=4;spacingRight=4;overflow=hidden;points=[[0,0.5],[1,0.5]];portConstraint=eastwest;rotatable=0;whiteSpace=wrap;html=1;" parent="ZdCaXhDbcUw_y7cuAWBx-8" vertex="1">
          <mxGeometry y="30" width="140" height="70" as="geometry" />
        </mxCell>
        <mxCell id="ZdCaXhDbcUw_y7cuAWBx-12" value="&lt;code&gt;Direction&lt;/code&gt;" style="swimlane;fontStyle=0;childLayout=stackLayout;horizontal=1;startSize=30;horizontalStack=0;resizeParent=1;resizeParentMax=0;resizeLast=0;collapsible=1;marginBottom=0;whiteSpace=wrap;html=1;" parent="1" vertex="1">
          <mxGeometry x="212" y="322" width="140" height="120" as="geometry" />
        </mxCell>
        <mxCell id="ZdCaXhDbcUw_y7cuAWBx-13" value="&lt;pre&gt;&lt;code class=&quot;code-container&quot; role=&quot;text&quot;&gt;+ NORTH&lt;br/&gt;+ WEST&lt;br/&gt;+ SOUTH&lt;br/&gt;+ EAST&lt;/code&gt;&lt;/pre&gt;" style="text;strokeColor=none;fillColor=none;align=left;verticalAlign=middle;spacingLeft=4;spacingRight=4;overflow=hidden;points=[[0,0.5],[1,0.5]];portConstraint=eastwest;rotatable=0;whiteSpace=wrap;html=1;" parent="ZdCaXhDbcUw_y7cuAWBx-12" vertex="1">
          <mxGeometry y="30" width="140" height="90" as="geometry" />
        </mxCell>
        <mxCell id="ZdCaXhDbcUw_y7cuAWBx-16" value="&lt;code&gt;Saab95&lt;/code&gt;" style="swimlane;fontStyle=0;childLayout=stackLayout;horizontal=1;startSize=30;horizontalStack=0;resizeParent=1;resizeParentMax=0;resizeLast=0;collapsible=1;marginBottom=0;whiteSpace=wrap;html=1;" parent="1" vertex="1">
          <mxGeometry x="773" y="58" width="200" height="140" as="geometry" />
        </mxCell>
        <mxCell id="ZdCaXhDbcUw_y7cuAWBx-18" value="&lt;pre&gt;&lt;code class=&quot;code-container no-decoration-radius&quot; role=&quot;text&quot;&gt;+ isTurboOn(): boolean&lt;br&gt;+ setTurboOn()&lt;br/&gt;+ setTurboOff()&lt;br/&gt;+ speedFactor(): double&lt;/code&gt;&lt;/pre&gt;" style="text;strokeColor=none;fillColor=none;align=left;verticalAlign=middle;spacingLeft=4;spacingRight=4;overflow=hidden;points=[[0,0.5],[1,0.5]];portConstraint=eastwest;rotatable=0;whiteSpace=wrap;html=1;" parent="ZdCaXhDbcUw_y7cuAWBx-16" vertex="1">
          <mxGeometry y="30" width="200" height="80" as="geometry" />
        </mxCell>
        <mxCell id="ZdCaXhDbcUw_y7cuAWBx-17" value="&lt;pre&gt;&lt;code class=&quot;code-container no-decoration-radius&quot; role=&quot;text&quot;&gt;- turbo: Turbo&lt;/code&gt;&lt;/pre&gt;" style="text;strokeColor=default;fillColor=none;align=left;verticalAlign=middle;spacingLeft=4;spacingRight=4;overflow=hidden;points=[[0,0.5],[1,0.5]];portConstraint=eastwest;rotatable=0;whiteSpace=wrap;html=1;" parent="ZdCaXhDbcUw_y7cuAWBx-16" vertex="1">
          <mxGeometry y="110" width="200" height="30" as="geometry" />
        </mxCell>
        <mxCell id="ZdCaXhDbcUw_y7cuAWBx-24" value="&lt;code&gt;Scania&lt;/code&gt;" style="swimlane;fontStyle=0;childLayout=stackLayout;horizontal=1;startSize=30;horizontalStack=0;resizeParent=1;resizeParentMax=0;resizeLast=0;collapsible=1;marginBottom=0;whiteSpace=wrap;html=1;" parent="1" vertex="1">
          <mxGeometry x="1133" y="407" width="140" height="100" as="geometry" />
        </mxCell>
        <mxCell id="ZdCaXhDbcUw_y7cuAWBx-25" value="&lt;pre&gt;&lt;code class=&quot;code-container no-decoration-radius&quot; role=&quot;text&quot;&gt;- platform: double&lt;/code&gt;&lt;/pre&gt;" style="text;strokeColor=default;fillColor=none;align=left;verticalAlign=middle;spacingLeft=4;spacingRight=4;overflow=hidden;points=[[0,0.5],[1,0.5]];portConstraint=eastwest;rotatable=0;whiteSpace=wrap;html=1;" parent="ZdCaXhDbcUw_y7cuAWBx-24" vertex="1">
          <mxGeometry y="30" width="140" height="30" as="geometry" />
        </mxCell>
        <mxCell id="ZdCaXhDbcUw_y7cuAWBx-26" value="+ move()&lt;br&gt;+ speedFactor(): double" style="text;strokeColor=none;fillColor=none;align=left;verticalAlign=middle;spacingLeft=4;spacingRight=4;overflow=hidden;points=[[0,0.5],[1,0.5]];portConstraint=eastwest;rotatable=0;whiteSpace=wrap;html=1;" parent="ZdCaXhDbcUw_y7cuAWBx-24" vertex="1">
          <mxGeometry y="60" width="140" height="40" as="geometry" />
        </mxCell>
        <mxCell id="ZdCaXhDbcUw_y7cuAWBx-28" value="&lt;br&gt;&lt;br&gt;&amp;lt;&amp;lt;abstract&amp;gt;&amp;gt;&lt;br&gt;&lt;code&gt;Vehicle&lt;br&gt;&lt;br&gt;&lt;br&gt;&lt;/code&gt;" style="swimlane;fontStyle=0;childLayout=stackLayout;horizontal=1;startSize=42;horizontalStack=0;resizeParent=1;resizeParentMax=0;resizeLast=0;collapsible=1;marginBottom=0;whiteSpace=wrap;html=1;" parent="1" vertex="1">
          <mxGeometry x="592" y="328" width="170" height="482" as="geometry" />
        </mxCell>
        <mxCell id="ZdCaXhDbcUw_y7cuAWBx-29" value="&lt;pre&gt;&lt;code class=&quot;code-container no-decoration-radius&quot; role=&quot;text&quot;&gt;- modelName: String&lt;br&gt;- nrDoors: int&lt;br&gt;- enginePower: double&lt;br&gt;- currentSpeed: double&lt;br&gt;- color: Color&lt;br&gt;- direction: Direction&lt;br&gt;- x: double&lt;br&gt;- y: double&lt;br&gt;- engineTurnOn: boolean&lt;/code&gt;&lt;/pre&gt;" style="text;strokeColor=default;fillColor=none;align=left;verticalAlign=middle;spacingLeft=4;spacingRight=4;overflow=hidden;points=[[0,0.5],[1,0.5]];portConstraint=eastwest;rotatable=0;whiteSpace=wrap;html=1;glass=0;rounded=0;" parent="ZdCaXhDbcUw_y7cuAWBx-28" vertex="1">
          <mxGeometry y="42" width="170" height="160" as="geometry" />
        </mxCell>
        <mxCell id="ZdCaXhDbcUw_y7cuAWBx-30" value="+ startEngine()&lt;br&gt;+ stopEngine()&lt;br&gt;+ move()&lt;br&gt;+ turnLeft()&lt;br&gt;+ turnRight()&lt;br&gt;+ gas(double)&lt;br&gt;+ brake(double)&lt;br&gt;+ reverseDirection()&lt;br&gt;+ isEngineTurnOn(): boolean&lt;br&gt;+ getNrDoors(): int&lt;br&gt;+ getEnginePower(): double&lt;br&gt;+ getCurrentSpeed(): double&lt;br&gt;+ getColor(): Color&lt;br&gt;+ getModelName(): String&lt;br&gt;+ setEngineTurnOn(boolean)&lt;br&gt;+ setDirection(Direction)&lt;br&gt;+ getDirection(): Direction&lt;br&gt;+ Move_dir(): boolean" style="text;strokeColor=none;fillColor=none;align=left;verticalAlign=middle;spacingLeft=4;spacingRight=4;overflow=hidden;points=[[0,0.5],[1,0.5]];portConstraint=eastwest;rotatable=0;whiteSpace=wrap;html=1;" parent="ZdCaXhDbcUw_y7cuAWBx-28" vertex="1">
          <mxGeometry y="202" width="170" height="280" as="geometry" />
        </mxCell>
        <mxCell id="ZdCaXhDbcUw_y7cuAWBx-36" value="&amp;lt;&amp;lt;abstract&amp;gt;&amp;gt;&lt;br&gt;&lt;code&gt;Truck&lt;/code&gt;" style="swimlane;fontStyle=0;childLayout=stackLayout;horizontal=1;startSize=30;horizontalStack=0;resizeParent=1;resizeParentMax=0;resizeLast=0;collapsible=1;marginBottom=0;whiteSpace=wrap;html=1;" parent="1" vertex="1">
          <mxGeometry x="850" y="242" width="200" height="180" as="geometry" />
        </mxCell>
        <mxCell id="ZdCaXhDbcUw_y7cuAWBx-37" value="&lt;pre&gt;&lt;code class=&quot;code-container no-decoration-radius&quot; role=&quot;text&quot;&gt;- platform: boolean&lt;/code&gt;&lt;/pre&gt;" style="text;strokeColor=default;fillColor=none;align=left;verticalAlign=middle;spacingLeft=4;spacingRight=4;overflow=hidden;points=[[0,0.5],[1,0.5]];portConstraint=eastwest;rotatable=0;whiteSpace=wrap;html=1;" parent="ZdCaXhDbcUw_y7cuAWBx-36" vertex="1">
          <mxGeometry y="30" width="200" height="30" as="geometry" />
        </mxCell>
        <mxCell id="ZdCaXhDbcUw_y7cuAWBx-38" value="&lt;pre&gt;&lt;code class=&quot;code-container no-decoration-radius&quot; role=&quot;text&quot;&gt;+ raiseRamp()&lt;br&gt;+ lowerRamp()&lt;br&gt;+ move()&lt;br&gt;+ getPlatformAngle(): double&lt;br&gt;+ raisePlatform(double)&lt;br&gt;+ lowerPlatform(double)&lt;/code&gt;&lt;/pre&gt;" style="text;strokeColor=none;fillColor=none;align=left;verticalAlign=middle;spacingLeft=4;spacingRight=4;overflow=hidden;points=[[0,0.5],[1,0.5]];portConstraint=eastwest;rotatable=0;whiteSpace=wrap;html=1;" parent="ZdCaXhDbcUw_y7cuAWBx-36" vertex="1">
          <mxGeometry y="60" width="200" height="120" as="geometry" />
        </mxCell>
        <mxCell id="ZdCaXhDbcUw_y7cuAWBx-44" value="&lt;code&gt;CarRepairShop&lt;/code&gt;" style="swimlane;fontStyle=0;childLayout=stackLayout;horizontal=1;startSize=30;horizontalStack=0;resizeParent=1;resizeParentMax=0;resizeLast=0;collapsible=1;marginBottom=0;whiteSpace=wrap;html=1;" parent="1" vertex="1">
          <mxGeometry x="363" y="351" width="190" height="130" as="geometry" />
        </mxCell>
        <mxCell id="ZdCaXhDbcUw_y7cuAWBx-45" value="&lt;pre&gt;&lt;code class=&quot;code-container no-decoration-radius&quot; role=&quot;text&quot;&gt;- cars: ArrayList&amp;lt;T&amp;gt;&lt;/code&gt;&lt;/pre&gt;" style="text;strokeColor=none;fillColor=none;align=left;verticalAlign=middle;spacingLeft=4;spacingRight=4;overflow=hidden;points=[[0,0.5],[1,0.5]];portConstraint=eastwest;rotatable=0;whiteSpace=wrap;html=1;" parent="ZdCaXhDbcUw_y7cuAWBx-44" vertex="1">
          <mxGeometry y="30" width="190" height="30" as="geometry" />
        </mxCell>
        <mxCell id="ZdCaXhDbcUw_y7cuAWBx-57" value="&lt;pre&gt;&lt;code class=&quot;code-container no-decoration-radius&quot; role=&quot;text&quot;&gt;+ isWorkShopFull(): boolean&lt;br/&gt;+ carload(T)&lt;br&gt;+ carUnload(T)&lt;/code&gt;&lt;/pre&gt;" style="text;strokeColor=none;fillColor=none;align=left;verticalAlign=middle;spacingLeft=4;spacingRight=4;overflow=hidden;points=[[0,0.5],[1,0.5]];portConstraint=eastwest;rotatable=0;whiteSpace=wrap;html=1;" parent="ZdCaXhDbcUw_y7cuAWBx-44" vertex="1">
          <mxGeometry y="60" width="190" height="70" as="geometry" />
        </mxCell>
        <mxCell id="ZdCaXhDbcUw_y7cuAWBx-32" value="&lt;code&gt;Volvo240&lt;/code&gt;" style="swimlane;fontStyle=0;childLayout=stackLayout;horizontal=1;startSize=30;horizontalStack=0;resizeParent=1;resizeParentMax=0;resizeLast=0;collapsible=1;marginBottom=0;whiteSpace=wrap;html=1;" parent="1" vertex="1">
          <mxGeometry x="416" y="59" width="200" height="120" as="geometry" />
        </mxCell>
        <mxCell id="ZdCaXhDbcUw_y7cuAWBx-33" value="&lt;pre&gt;&lt;code class=&quot;code-container no-decoration-radius&quot; role=&quot;text&quot;&gt;- trim: Trim&lt;/code&gt;&lt;/pre&gt;" style="text;strokeColor=default;fillColor=none;align=left;verticalAlign=middle;spacingLeft=4;spacingRight=4;overflow=hidden;points=[[0,0.5],[1,0.5]];portConstraint=eastwest;rotatable=0;whiteSpace=wrap;html=1;" parent="ZdCaXhDbcUw_y7cuAWBx-32" vertex="1">
          <mxGeometry y="30" width="200" height="30" as="geometry" />
        </mxCell>
        <mxCell id="ZdCaXhDbcUw_y7cuAWBx-34" value="&lt;pre&gt;&lt;code class=&quot;code-container no-decoration-radius&quot; role=&quot;text&quot;&gt;+ setTrimFactor(double)&lt;br&gt;+ getTrimFactor(): double&lt;br&gt;+ speedFactor(): double&lt;/code&gt;&lt;/pre&gt;" style="text;strokeColor=none;fillColor=none;align=left;verticalAlign=middle;spacingLeft=4;spacingRight=4;overflow=hidden;points=[[0,0.5],[1,0.5]];portConstraint=eastwest;rotatable=0;whiteSpace=wrap;html=1;" parent="ZdCaXhDbcUw_y7cuAWBx-32" vertex="1">
          <mxGeometry y="60" width="200" height="60" as="geometry" />
        </mxCell>
        <mxCell id="ZdCaXhDbcUw_y7cuAWBx-20" value="&lt;code&gt;Turbo&lt;/code&gt;" style="swimlane;fontStyle=0;childLayout=stackLayout;horizontal=1;startSize=30;horizontalStack=0;resizeParent=1;resizeParentMax=0;resizeLast=0;collapsible=1;marginBottom=0;whiteSpace=wrap;html=1;" parent="1" vertex="1">
          <mxGeometry x="1078" y="60" width="150" height="130" as="geometry" />
        </mxCell>
        <mxCell id="ZdCaXhDbcUw_y7cuAWBx-21" value="&lt;pre&gt;&lt;code class=&quot;code-container&quot; role=&quot;text&quot;&gt;- turboOn: boolean&lt;/code&gt;&lt;/pre&gt;" style="text;strokeColor=none;fillColor=none;align=left;verticalAlign=middle;spacingLeft=4;spacingRight=4;overflow=hidden;points=[[0,0.5],[1,0.5]];portConstraint=eastwest;rotatable=0;whiteSpace=wrap;html=1;" parent="ZdCaXhDbcUw_y7cuAWBx-20" vertex="1">
          <mxGeometry y="30" width="150" height="30" as="geometry" />
        </mxCell>
        <mxCell id="ZdCaXhDbcUw_y7cuAWBx-22" value="&lt;pre&gt;&lt;code class=&quot;code-container&quot; role=&quot;text&quot;&gt;+ isTurboOn(): boolean&lt;br/&gt;+ setTurboOn()&lt;br/&gt;+ setTurboOff()&lt;/code&gt;&lt;/pre&gt;" style="text;strokeColor=none;fillColor=none;align=left;verticalAlign=middle;spacingLeft=4;spacingRight=4;overflow=hidden;points=[[0,0.5],[1,0.5]];portConstraint=eastwest;rotatable=0;whiteSpace=wrap;html=1;" parent="ZdCaXhDbcUw_y7cuAWBx-20" vertex="1">
          <mxGeometry y="60" width="150" height="70" as="geometry" />
        </mxCell>
        <mxCell id="ZdCaXhDbcUw_y7cuAWBx-49" value="&lt;code&gt;Trim&lt;br&gt;&lt;/code&gt;" style="swimlane;fontStyle=0;childLayout=stackLayout;horizontal=1;startSize=30;horizontalStack=0;resizeParent=1;resizeParentMax=0;resizeLast=0;collapsible=1;marginBottom=0;whiteSpace=wrap;html=1;" parent="1" vertex="1">
          <mxGeometry x="179" y="55" width="190" height="130" as="geometry" />
        </mxCell>
        <mxCell id="ZdCaXhDbcUw_y7cuAWBx-50" value="&lt;pre&gt;&lt;code class=&quot;code-container&quot; role=&quot;text&quot;&gt;- trimFactor: double&lt;/code&gt;&lt;/pre&gt;" style="text;strokeColor=none;fillColor=none;align=left;verticalAlign=middle;spacingLeft=4;spacingRight=4;overflow=hidden;points=[[0,0.5],[1,0.5]];portConstraint=eastwest;rotatable=0;whiteSpace=wrap;html=1;" parent="ZdCaXhDbcUw_y7cuAWBx-49" vertex="1">
          <mxGeometry y="30" width="190" height="30" as="geometry" />
        </mxCell>
        <mxCell id="ZdCaXhDbcUw_y7cuAWBx-51" value="&lt;pre&gt;&lt;code class=&quot;code-container&quot; role=&quot;text&quot;&gt;+ Trim(double)&lt;br&gt;+ getTrimFactor(): double&lt;br&gt;+ applyTrim(double): double&lt;/code&gt;&lt;/pre&gt;" style="text;strokeColor=none;fillColor=none;align=left;verticalAlign=middle;spacingLeft=4;spacingRight=4;overflow=hidden;points=[[0,0.5],[1,0.5]];portConstraint=eastwest;rotatable=0;whiteSpace=wrap;html=1;" parent="ZdCaXhDbcUw_y7cuAWBx-49" vertex="1">
          <mxGeometry y="60" width="190" height="70" as="geometry" />
        </mxCell>
        <mxCell id="ZdCaXhDbcUw_y7cuAWBx-53" value="&lt;pre&gt;&lt;code class=&quot;code-container no-decoration-radius&quot; role=&quot;text&quot;&gt;Transport&lt;/code&gt;&lt;/pre&gt;" style="swimlane;fontStyle=0;childLayout=stackLayout;horizontal=1;startSize=30;horizontalStack=0;resizeParent=1;resizeParentMax=0;resizeLast=0;collapsible=1;marginBottom=0;whiteSpace=wrap;html=1;" parent="1" vertex="1">
          <mxGeometry x="1137" y="220" width="190" height="170" as="geometry" />
        </mxCell>
        <mxCell id="ZdCaXhDbcUw_y7cuAWBx-54" value="&lt;pre&gt;&lt;code class=&quot;code-container no-decoration-radius&quot; role=&quot;text&quot;&gt;- cars: List&amp;lt;Vehicle&amp;gt;&lt;/code&gt;&lt;/pre&gt;" style="text;strokeColor=none;fillColor=none;align=left;verticalAlign=middle;spacingLeft=4;spacingRight=4;overflow=hidden;points=[[0,0.5],[1,0.5]];portConstraint=eastwest;rotatable=0;whiteSpace=wrap;html=1;" parent="ZdCaXhDbcUw_y7cuAWBx-53" vertex="1">
          <mxGeometry y="30" width="190" height="30" as="geometry" />
        </mxCell>
        <mxCell id="ZdCaXhDbcUw_y7cuAWBx-55" value="&lt;pre&gt;&lt;code class=&quot;code-container no-decoration-radius&quot; role=&quot;text&quot;&gt;+ loadCar(Vehicle)&lt;br/&gt;+ unloadCar(Vehicle)&lt;br/&gt;+ move()&lt;br/&gt;+ getCars(): List&amp;lt;Vehicle&amp;gt;&lt;br/&gt;+ speedFactor(): double&lt;/code&gt;&lt;/pre&gt;" style="text;strokeColor=none;fillColor=none;align=left;verticalAlign=middle;spacingLeft=4;spacingRight=4;overflow=hidden;points=[[0,0.5],[1,0.5]];portConstraint=eastwest;rotatable=0;whiteSpace=wrap;html=1;" parent="ZdCaXhDbcUw_y7cuAWBx-53" vertex="1">
          <mxGeometry y="60" width="190" height="110" as="geometry" />
        </mxCell>
        <mxCell id="ZdCaXhDbcUw_y7cuAWBx-59" value="" style="endArrow=block;dashed=1;endFill=0;endSize=12;html=1;rounded=0;entryX=1;entryY=0.25;entryDx=0;entryDy=0;exitX=0.008;exitY=-0.008;exitDx=0;exitDy=0;exitPerimeter=0;" parent="1" source="ZdCaXhDbcUw_y7cuAWBx-28" target="ZdCaXhDbcUw_y7cuAWBx-8" edge="1">
          <mxGeometry width="160" relative="1" as="geometry">
            <mxPoint x="590" y="320" as="sourcePoint" />
            <mxPoint x="590" y="212" as="targetPoint" />
          </mxGeometry>
        </mxCell>
        <mxCell id="ZdCaXhDbcUw_y7cuAWBx-77" value="" style="endArrow=block;endSize=16;endFill=0;html=1;rounded=0;entryX=0.25;entryY=0;entryDx=0;entryDy=0;exitX=1.006;exitY=0.078;exitDx=0;exitDy=0;exitPerimeter=0;" parent="1" source="ZdCaXhDbcUw_y7cuAWBx-32" target="ZdCaXhDbcUw_y7cuAWBx-28" edge="1">
          <mxGeometry width="160" relative="1" as="geometry">
            <mxPoint x="620" y="70" as="sourcePoint" />
            <mxPoint x="1008.3" y="218.74" as="targetPoint" />
            <Array as="points">
              <mxPoint x="670" y="70" />
            </Array>
          </mxGeometry>
        </mxCell>
        <mxCell id="ZdCaXhDbcUw_y7cuAWBx-78" value="" style="endArrow=block;endSize=16;endFill=0;html=1;rounded=0;exitX=-0.013;exitY=0.124;exitDx=0;exitDy=0;exitPerimeter=0;entryX=1;entryY=0;entryDx=0;entryDy=0;" parent="1" source="ZdCaXhDbcUw_y7cuAWBx-36" target="ZdCaXhDbcUw_y7cuAWBx-28" edge="1">
          <mxGeometry width="160" relative="1" as="geometry">
            <mxPoint x="817.1999999999998" y="235.74000000000007" as="sourcePoint" />
            <mxPoint x="740" y="320" as="targetPoint" />
          </mxGeometry>
        </mxCell>
        <mxCell id="ZdCaXhDbcUw_y7cuAWBx-79" value="" style="endArrow=block;endSize=16;endFill=0;html=1;rounded=0;exitX=-0.007;exitY=0.157;exitDx=0;exitDy=0;exitPerimeter=0;entryX=0.5;entryY=0;entryDx=0;entryDy=0;" parent="1" source="ZdCaXhDbcUw_y7cuAWBx-16" target="ZdCaXhDbcUw_y7cuAWBx-28" edge="1">
          <mxGeometry width="160" relative="1" as="geometry">
            <mxPoint x="850" y="565" as="sourcePoint" />
            <mxPoint x="850" y="320" as="targetPoint" />
          </mxGeometry>
        </mxCell>
        <mxCell id="ZdCaXhDbcUw_y7cuAWBx-83" value="" style="endArrow=block;endSize=16;endFill=0;html=1;rounded=0;exitX=-0.002;exitY=0.112;exitDx=0;exitDy=0;exitPerimeter=0;entryX=0.943;entryY=-0.001;entryDx=0;entryDy=0;entryPerimeter=0;" parent="1" source="ZdCaXhDbcUw_y7cuAWBx-53" target="ZdCaXhDbcUw_y7cuAWBx-36" edge="1">
          <mxGeometry width="160" relative="1" as="geometry">
            <mxPoint x="1090" y="390" as="sourcePoint" />
            <mxPoint x="1047" y="410" as="targetPoint" />
          </mxGeometry>
        </mxCell>
        <mxCell id="ZdCaXhDbcUw_y7cuAWBx-84" value="" style="endArrow=block;endSize=16;endFill=0;html=1;rounded=0;entryX=0.999;entryY=0.091;entryDx=0;entryDy=0;entryPerimeter=0;exitX=0.006;exitY=0.113;exitDx=0;exitDy=0;exitPerimeter=0;" parent="1" source="ZdCaXhDbcUw_y7cuAWBx-24" target="ZdCaXhDbcUw_y7cuAWBx-36" edge="1">
          <mxGeometry width="160" relative="1" as="geometry">
            <mxPoint x="1160" y="420" as="sourcePoint" />
            <mxPoint x="1059" y="366" as="targetPoint" />
          </mxGeometry>
        </mxCell>
        <mxCell id="ZdCaXhDbcUw_y7cuAWBx-85" value="" style="endArrow=open;endFill=1;endSize=12;html=1;rounded=0;entryX=0.996;entryY=0.152;entryDx=0;entryDy=0;entryPerimeter=0;exitX=0.005;exitY=0.128;exitDx=0;exitDy=0;exitPerimeter=0;" parent="1" source="ZdCaXhDbcUw_y7cuAWBx-32" target="ZdCaXhDbcUw_y7cuAWBx-49" edge="1">
          <mxGeometry width="160" relative="1" as="geometry">
            <mxPoint x="600" y="30" as="sourcePoint" />
            <mxPoint x="760" y="30" as="targetPoint" />
          </mxGeometry>
        </mxCell>
        <mxCell id="ZdCaXhDbcUw_y7cuAWBx-86" value="" style="endArrow=open;endFill=1;endSize=12;html=1;rounded=0;entryX=1.002;entryY=0.121;entryDx=0;entryDy=0;entryPerimeter=0;exitX=-0.005;exitY=0.126;exitDx=0;exitDy=0;exitPerimeter=0;" parent="1" source="ZdCaXhDbcUw_y7cuAWBx-20" target="ZdCaXhDbcUw_y7cuAWBx-16" edge="1">
          <mxGeometry width="160" relative="1" as="geometry">
            <mxPoint x="1064" y="70" as="sourcePoint" />
            <mxPoint x="1020" y="-60" as="targetPoint" />
          </mxGeometry>
        </mxCell>
        <mxCell id="ZdCaXhDbcUw_y7cuAWBx-87" value="" style="endArrow=open;endFill=1;endSize=12;html=1;rounded=0;entryX=1.002;entryY=0.068;entryDx=0;entryDy=0;entryPerimeter=0;exitX=0.038;exitY=0.002;exitDx=0;exitDy=0;exitPerimeter=0;" parent="1" source="ZdCaXhDbcUw_y7cuAWBx-28" target="ZdCaXhDbcUw_y7cuAWBx-12" edge="1">
          <mxGeometry width="160" relative="1" as="geometry">
            <mxPoint x="590" y="330" as="sourcePoint" />
            <mxPoint x="543" y="351" as="targetPoint" />
          </mxGeometry>
        </mxCell>
        <mxCell id="ZdCaXhDbcUw_y7cuAWBx-88" value="&lt;pre&gt;&lt;code class=&quot;code-container&quot; role=&quot;text&quot;&gt;CarController &lt;/code&gt;&lt;/pre&gt;" style="swimlane;fontStyle=0;childLayout=stackLayout;horizontal=1;startSize=30;horizontalStack=0;resizeParent=1;resizeParentMax=0;resizeLast=0;collapsible=1;marginBottom=0;whiteSpace=wrap;html=1;" parent="1" vertex="1">
          <mxGeometry x="850" y="430" width="200" height="240" as="geometry" />
        </mxCell>
        <mxCell id="ZdCaXhDbcUw_y7cuAWBx-89" value="&lt;pre&gt;&lt;code class=&quot;code-container&quot; role=&quot;text&quot;&gt;- cars: ArrayList&amp;lt;Vehicle&amp;gt;&lt;br&gt;- delay: int&lt;br&gt;- timer: Timer&lt;br&gt;- frame: CarView&lt;br&gt;&lt;/code&gt;&lt;code class=&quot;code-container&quot; role=&quot;text&quot;&gt;+ CarController()&lt;/code&gt;&lt;/pre&gt;" style="text;strokeColor=default;fillColor=none;align=left;verticalAlign=middle;spacingLeft=4;spacingRight=4;overflow=hidden;points=[[0,0.5],[1,0.5]];portConstraint=eastwest;rotatable=0;whiteSpace=wrap;html=1;" parent="ZdCaXhDbcUw_y7cuAWBx-88" vertex="1">
          <mxGeometry y="30" width="200" height="90" as="geometry" />
        </mxCell>
        <mxCell id="ZdCaXhDbcUw_y7cuAWBx-90" value="&lt;pre&gt;&lt;code class=&quot;code-container&quot; role=&quot;text&quot;&gt;&lt;br&gt;+ gas(int)&lt;br&gt;+ brake(int)&lt;br&gt;+ setTurboOn()&lt;br&gt;+ main(String[])&lt;/code&gt;&lt;/pre&gt;" style="text;strokeColor=none;fillColor=none;align=left;verticalAlign=middle;spacingLeft=4;spacingRight=4;overflow=hidden;points=[[0,0.5],[1,0.5]];portConstraint=eastwest;rotatable=0;whiteSpace=wrap;html=1;" parent="ZdCaXhDbcUw_y7cuAWBx-88" vertex="1">
          <mxGeometry y="120" width="200" height="120" as="geometry" />
        </mxCell>
        <mxCell id="ZdCaXhDbcUw_y7cuAWBx-91" value="" style="endArrow=open;endSize=12;dashed=1;html=1;rounded=0;entryX=0.998;entryY=0.011;entryDx=0;entryDy=0;entryPerimeter=0;exitX=0;exitY=0;exitDx=0;exitDy=0;" parent="1" source="ZdCaXhDbcUw_y7cuAWBx-88" target="ZdCaXhDbcUw_y7cuAWBx-28" edge="1">
          <mxGeometry width="160" relative="1" as="geometry">
            <mxPoint x="710" y="530" as="sourcePoint" />
            <mxPoint x="870" y="530" as="targetPoint" />
          </mxGeometry>
        </mxCell>
        <mxCell id="ZdCaXhDbcUw_y7cuAWBx-92" value="" style="endArrow=open;endSize=12;dashed=1;html=1;rounded=0;exitX=1;exitY=0;exitDx=0;exitDy=0;entryX=-0.007;entryY=0.023;entryDx=0;entryDy=0;entryPerimeter=0;" parent="1" source="ZdCaXhDbcUw_y7cuAWBx-44" target="ZdCaXhDbcUw_y7cuAWBx-28" edge="1">
          <mxGeometry width="160" relative="1" as="geometry">
            <mxPoint x="570" y="380" as="sourcePoint" />
            <mxPoint x="590" y="340" as="targetPoint" />
          </mxGeometry>
        </mxCell>
        <mxCell id="ZdCaXhDbcUw_y7cuAWBx-93" value="&lt;pre&gt;&lt;code class=&quot;code-container&quot; role=&quot;text&quot;&gt;CarView &lt;/code&gt;&lt;/pre&gt;" style="swimlane;fontStyle=0;childLayout=stackLayout;horizontal=1;startSize=30;horizontalStack=0;resizeParent=1;resizeParentMax=0;resizeLast=0;collapsible=1;marginBottom=0;whiteSpace=wrap;html=1;" parent="1" vertex="1">
          <mxGeometry x="1131" y="570" width="220" height="280" as="geometry" />
        </mxCell>
        <mxCell id="ZdCaXhDbcUw_y7cuAWBx-94" value="&lt;pre&gt;&lt;code class=&quot;code-container&quot; role=&quot;text&quot;&gt;- drawPanel: DrawPanel&lt;br&gt;- controlPanel: JPanel&lt;br&gt;- gasPanel: JPanel&lt;br&gt;- gasSpinner: JSpinner&lt;br&gt;- gasButton: JButton&lt;br&gt;- brakeButton: JButton&lt;br&gt;- turboOnButton: JButton&lt;br&gt;- turboOffButton: JButton&lt;br&gt;- startButton: JButton&lt;br&gt;- stopButton: JButton&lt;br&gt;&lt;/code&gt;&lt;/pre&gt;" style="text;strokeColor=default;fillColor=none;align=left;verticalAlign=middle;spacingLeft=4;spacingRight=4;overflow=hidden;points=[[0,0.5],[1,0.5]];portConstraint=eastwest;rotatable=0;whiteSpace=wrap;html=1;" parent="ZdCaXhDbcUw_y7cuAWBx-93" vertex="1">
          <mxGeometry y="30" width="220" height="180" as="geometry" />
        </mxCell>
        <mxCell id="ZdCaXhDbcUw_y7cuAWBx-95" value="&lt;pre&gt;&lt;code class=&quot;code-container&quot; role=&quot;text&quot;&gt;+ CarView(String, CarController)&lt;br&gt;+ initComponents(String)&lt;/code&gt;&lt;/pre&gt;" style="text;strokeColor=none;fillColor=none;align=left;verticalAlign=middle;spacingLeft=4;spacingRight=4;overflow=hidden;points=[[0,0.5],[1,0.5]];portConstraint=eastwest;rotatable=0;whiteSpace=wrap;html=1;" parent="ZdCaXhDbcUw_y7cuAWBx-93" vertex="1">
          <mxGeometry y="210" width="220" height="70" as="geometry" />
        </mxCell>
        <mxCell id="ZdCaXhDbcUw_y7cuAWBx-96" value="" style="endArrow=open;endSize=12;dashed=1;html=1;rounded=0;exitX=0;exitY=0;exitDx=0;exitDy=0;entryX=1;entryY=0.079;entryDx=0;entryDy=0;entryPerimeter=0;" parent="1" source="ZdCaXhDbcUw_y7cuAWBx-93" target="ZdCaXhDbcUw_y7cuAWBx-88" edge="1">
          <mxGeometry width="160" relative="1" as="geometry">
            <mxPoint x="850" y="480" as="sourcePoint" />
            <mxPoint x="760" y="360" as="targetPoint" />
          </mxGeometry>
        </mxCell>
        <mxCell id="ZdCaXhDbcUw_y7cuAWBx-97" value="&lt;pre&gt;&lt;code class=&quot;code-container&quot; role=&quot;text&quot;&gt;DrawPanel &lt;/code&gt;&lt;/pre&gt;" style="swimlane;fontStyle=0;childLayout=stackLayout;horizontal=1;startSize=30;horizontalStack=0;resizeParent=1;resizeParentMax=0;resizeLast=0;collapsible=1;marginBottom=0;whiteSpace=wrap;html=1;" parent="1" vertex="1">
          <mxGeometry x="358" y="550" width="200" height="170" as="geometry" />
        </mxCell>
        <mxCell id="ZdCaXhDbcUw_y7cuAWBx-98" value="&lt;pre&gt;&lt;code class=&quot;code-container&quot; role=&quot;text&quot;&gt;- volvoImage: BufferedImage&lt;br/&gt;- saabImage: BufferedImage&lt;br/&gt;- scaniaImage: BufferedImage&lt;br/&gt;- volvoPoint: Point&lt;br/&gt;- saabPoint: Point&lt;br/&gt;- scaniaPoint: Point&lt;/code&gt;&lt;/pre&gt;" style="text;strokeColor=default;fillColor=none;align=left;verticalAlign=middle;spacingLeft=4;spacingRight=4;overflow=hidden;points=[[0,0.5],[1,0.5]];portConstraint=eastwest;rotatable=0;whiteSpace=wrap;html=1;" parent="ZdCaXhDbcUw_y7cuAWBx-97" vertex="1">
          <mxGeometry y="30" width="200" height="90" as="geometry" />
        </mxCell>
        <mxCell id="ZdCaXhDbcUw_y7cuAWBx-99" value="&lt;pre&gt;&lt;code class=&quot;code-container&quot; role=&quot;text&quot;&gt;+ DrawPanel(int, int)&lt;br/&gt;+ paintComponent(Graphics)&lt;/code&gt;&lt;/pre&gt;" style="text;strokeColor=none;fillColor=none;align=left;verticalAlign=middle;spacingLeft=4;spacingRight=4;overflow=hidden;points=[[0,0.5],[1,0.5]];portConstraint=eastwest;rotatable=0;whiteSpace=wrap;html=1;" parent="ZdCaXhDbcUw_y7cuAWBx-97" vertex="1">
          <mxGeometry y="120" width="200" height="50" as="geometry" />
        </mxCell>
        <mxCell id="ZdCaXhDbcUw_y7cuAWBx-100" value="" style="endArrow=open;endSize=12;dashed=1;html=1;rounded=0;exitX=0.96;exitY=-0.01;exitDx=0;exitDy=0;exitPerimeter=0;entryX=0.008;entryY=0.062;entryDx=0;entryDy=0;entryPerimeter=0;" parent="1" source="ZdCaXhDbcUw_y7cuAWBx-97" target="ZdCaXhDbcUw_y7cuAWBx-28" edge="1">
          <mxGeometry width="160" relative="1" as="geometry">
            <mxPoint x="830" y="520" as="sourcePoint" />
            <mxPoint x="590" y="350" as="targetPoint" />
            <Array as="points">
              <mxPoint x="560" y="360" />
            </Array>
          </mxGeometry>
        </mxCell>
      </root>
    </mxGraphModel>
  </diagram>
</mxfile>
